<?xml version="1.0" encoding="UTF-8"?>
<svg id="_Слой_1" data-name="Слой 1" xmlns="http://www.w3.org/2000/svg" viewBox="0 0 63.76 56.12">
  <defs>
    <style>
      .cls-1, .cls-2 {
        stroke-width: 0px;
      }

      .cls-2 {
        fill: #d15469;
      }
    </style>
  </defs>
  <polygon class="cls-2" points="55 35.15 31.87 54.33 4.66 30 2.98 13.78 10.79 3.3 20.78 2.71 32.16 11.21 43.43 1.91 57.28 5.08 61.33 17.34 55 35.15"/>
  <path class="cls-1" d="M30.54,55.66c.36.3.82.46,1.28.46h.1c.47,0,.92-.16,1.28-.46,12.82-6.71,23.91-20.9,24.35-21.47,4.91-5.97,11.17-19.89-.22-29.85-.24-.21-6-5.23-13.45-4.2-4.47.62-8.5,3.24-12.01,7.8C28.37,3.38,24.34.76,19.87.14,12.42-.89,6.66,4.13,6.43,4.33c-11.4,9.98-5.13,23.9-.26,29.82.47.61,11.56,14.8,24.38,21.51h0ZM9.06,7.34s3.87-3.34,8.79-3.34c.49,0,.99.03,1.5.1,3.94.56,7.55,3.33,10.74,8.24.01.01.02.03.02.04.35.64,1.04,1.04,1.77,1.04s1.4-.4,1.75-1.04c.02-.04.04-.08.06-.11,3.18-4.87,6.77-7.62,10.7-8.17,5.62-.79,10.24,3.19,10.3,3.24,11.32,9.91.25,23.73-.26,24.36-.11.14-10.73,13.72-22.56,20.15-11.83-6.43-22.44-20-22.59-20.18-.47-.59-11.55-14.41-.22-24.32h0Z"/>
</svg>