<?xml version="1.0" encoding="UTF-8"?>
<svg id="_Слой_1" data-name=" Слой 1" xmlns="http://www.w3.org/2000/svg" viewBox="0 0 9 8.99">
  <defs>
    <style>
      .cls-1 {
        fill: #cda885;
        stroke-width: 0px;
      }
    </style>
  </defs>
  <path class="cls-1" d="M7.05,0c-1.07,0-1.95.87-1.95,1.95s.88,1.95,1.95,1.95,1.95-.88,1.95-1.95-.88-1.95-1.95-1.95ZM1.94.1c-.1,0-.19.06-.23.14L.03,3.51c-.07.13,0,.29.12.36.04.02.08.03.12.03h3.37c.15,0,.26-.12.26-.27,0-.04,0-.08-.03-.12L2.18.24c-.05-.09-.14-.14-.24-.14ZM7.05.53c.79,0,1.42.63,1.42,1.42s-.63,1.42-1.42,1.42-1.42-.63-1.42-1.42.63-1.42,1.42-1.42ZM1.94.94l1.25,2.42H.7L1.94.94ZM.38,5.09c-.07,0-.14.03-.19.08-.1.1-.1.27,0,.37l1.5,1.5-1.5,1.5c-.1.1-.1.27,0,.37H.19c.1.1.27.1.37,0h0l1.5-1.5,1.5,1.5c.1.1.27.1.37,0h0c.1-.1.1-.27,0-.37h0l-1.5-1.5,1.5-1.5c.1-.1.1-.27,0-.37-.05-.05-.12-.08-.19-.08s-.14.03-.19.08l-1.5,1.49-1.5-1.49s-.12-.08-.19-.08h.02ZM5.37,5.09c-.15,0-.27.12-.27.26h0v3.36c0,.15.12.27.26.27h3.36c.15,0,.27-.12.27-.26h0v-3.36c0-.15-.12-.27-.26-.27h0s-3.36,0-3.36,0ZM5.63,5.62h2.84v2.84h-2.84v-2.84Z"/>
</svg>