<?xml version="1.0" encoding="UTF-8"?>
<svg id="_Слой_1" data-name="Слой 1" xmlns="http://www.w3.org/2000/svg" viewBox="0 0 90.62 90.62">
  <defs>
    <style>
      .cls-1 {
        stroke-width: 0px;
      }
    </style>
  </defs>
  <path class="cls-1" d="M81.56,6.05H9.06c-1.67,0-3.02,1.36-3.02,3.02v72.5c0,1.67,1.36,3.02,3.02,3.02h72.5c1.67,0,3.02-1.36,3.02-3.02V9.06c0-1.67-1.34-3.02-3.02-3.02ZM81.56,43.8h-34.73V9.06h34.73v34.73ZM43.8,9.06v34.73H9.06V9.06h34.73ZM9.06,46.83h34.73v34.73H9.06v-34.73ZM46.83,81.56v-34.73h34.73v34.73h-34.73Z"/>
  <path class="cls-1" d="M16.61,31.7h4.55v4.55c0,1.67,1.36,3.02,3.02,3.02h4.52c1.67,0,3.02-1.36,3.02-3.02v-4.55h4.55c1.67,0,3.02-1.36,3.02-3.02v-4.52c0-1.67-1.36-3.02-3.02-3.02h-4.55v-4.55c0-1.67-1.36-3.02-3.02-3.02h-4.52c-1.67,0-3.02,1.36-3.02,3.02v4.55h-4.55c-1.67,0-3.02,1.36-3.02,3.02v4.52c0,1.66,1.36,3.02,3.02,3.02ZM16.61,24.17h6.05c.83,0,1.52-.67,1.52-1.52v-6.05h4.52v6.05c0,.83.67,1.52,1.52,1.52h6.05v4.52h-6.05c-.83,0-1.52.67-1.52,1.52v6.05h-4.52v-6.05c0-.83-.67-1.52-1.52-1.52h-6.05v-4.52Z"/>
  <path class="cls-1" d="M54.37,31.7h19.64c1.67,0,3.02-1.36,3.02-3.02v-4.52c0-1.67-1.36-3.02-3.02-3.02h-19.64c-1.67,0-3.02,1.36-3.02,3.02v4.52c0,1.67,1.34,3.02,3.02,3.02ZM54.37,24.17h19.64v4.52h-19.64v-4.52Z"/>
  <path class="cls-1" d="M34.05,64.19l3.36-3.36c1.17-1.17,1.17-3.09,0-4.27l-3.34-3.34c-1.17-1.17-3.09-1.17-4.27,0l-3.36,3.36-3.36-3.36c-1.17-1.17-3.09-1.17-4.27,0l-3.34,3.34c-1.17,1.17-1.17,3.09,0,4.27l3.36,3.36-3.36,3.36c-1.17,1.17-1.17,3.09,0,4.27l3.34,3.34c.59.59,1.36.88,2.14.88s1.55-.3,2.14-.88l3.36-3.36,3.36,3.36c1.17,1.17,3.09,1.17,4.27,0l3.34-3.34c1.17-1.17,1.17-3.09,0-4.27l-3.38-3.36ZM31.94,73.03l-4.44-4.44c-.28-.28-.67-.44-1.06-.44s-.78.16-1.06.44l-4.44,4.44-3.34-3.34,4.44-4.42c.28-.28.44-.67.44-1.06s-.16-.78-.44-1.06l-4.44-4.44,3.34-3.34,4.44,4.44c.56.56,1.56.56,2.14,0l4.44-4.44,3.34,3.34-4.44,4.42c-.28.28-.44.67-.44,1.06s.16.78.44,1.06l4.44,4.44-3.36,3.34Z"/>
  <path class="cls-1" d="M60.92,53.58c-1.17-1.17-3.09-1.17-4.27,0l-3.19,3.19c-1.17,1.17-1.17,3.09,0,4.27l13.89,13.89c.56.58,1.33.89,2.14.89s1.56-.31,2.14-.89l3.19-3.19c1.17-1.17,1.17-3.09,0-4.27l-13.91-13.89ZM69.47,72.8l-13.89-13.89,3.19-3.19,13.89,13.89-3.19,3.19Z"/>
  <path class="cls-1" d="M59.28,69.11c-1.64-1.66-4.33-1.64-5.98,0-1.64,1.66-1.64,4.33,0,5.98.83.83,1.91,1.23,2.98,1.23s2.17-.41,2.98-1.23c.8-.8,1.23-1.86,1.23-2.98s-.42-2.2-1.22-3ZM57.14,72.95c-.47.47-1.23.47-1.7,0s-.47-1.23,0-1.7c.23-.23.55-.36.86-.36s.62.12.86.36.36.53.36.86c-.02.31-.14.61-.38.84h0Z"/>
  <path class="cls-1" d="M69.11,53.3c-.8.8-1.23,1.86-1.23,2.98s.44,2.19,1.23,2.98c.83.83,1.91,1.23,2.98,1.23s2.17-.41,2.98-1.23c1.64-1.66,1.64-4.33,0-5.98-1.64-1.62-4.33-1.62-5.97.02h0ZM72.95,57.14c-.47.47-1.23.47-1.7,0-.23-.23-.36-.53-.36-.86s.12-.62.36-.86c.47-.47,1.23-.47,1.7,0,.47.48.47,1.25,0,1.72h0Z"/>
  <path class="cls-1" d="M86.09,0H4.53C2.03,0,0,2.03,0,4.53v81.56c0,2.5,2.03,4.53,4.53,4.53h81.56c2.5,0,4.53-2.03,4.53-4.53V4.53C90.62,2.03,88.59,0,86.09,0ZM87.61,86.09c0,.83-.67,1.52-1.52,1.52H4.53c-.83,0-1.52-.67-1.52-1.52V4.53c0-.83.67-1.52,1.52-1.52h81.56c.83,0,1.52.67,1.52,1.52v81.56Z"/>
</svg>