<?xml version="1.0" encoding="UTF-8"?>
<svg id="_Слой_1" data-name="Слой 1" xmlns="http://www.w3.org/2000/svg" viewBox="0 0 222.56 109.25">
  <defs>
    <style>
      .cls-1 {
        fill: #819acf;
      }

      .cls-1, .cls-2, .cls-3, .cls-4 {
        stroke-width: 0px;
      }

      .cls-2 {
        fill: #ebc15a;
      }

      .cls-5 {
        fill: #41415e;
        font-family: Lexend-Bold, Lexend;
        font-size: 49.68px;
        font-weight: 700;
      }

      .cls-3 {
        fill: #eb5b91;
      }

      .cls-4 {
        fill: #77ba5b;
      }
    </style>
  </defs>
  <g>
    <g>
      <g>
        <path class="cls-2" d="M83.37,89.13c-1.59,0-2.87,1.28-2.87,2.87,0,.76.3,1.49.84,2.03.54.54,1.27.84,2.03.84s1.49-.3,2.03-.84c.54-.54.84-1.27.84-2.03s-.3-1.49-.84-2.03c-.54-.54-1.27-.84-2.03-.84h0Z"/>
        <path class="cls-2" d="M71.87,80.5c-1.59,0-2.88,1.28-2.88,2.87,0,.76.31,1.49.85,2.03.54.54,1.27.84,2.03.84h23,0c.77,0,1.49-.3,2.03-.84.54-.54.85-1.27.85-2.03s-.31-1.49-.85-2.03-1.27-.84-2.03-.84h-23Z"/>
        <path class="cls-2" d="M83.37,71.88c-1.59,0-2.87,1.28-2.87,2.87,0,.76.3,1.49.84,2.03.54.54,1.27.84,2.03.84s1.49-.3,2.03-.84c.54-.54.84-1.27.84-2.03s-.3-1.49-.84-2.03c-.54-.54-1.27-.84-2.03-.84h0Z"/>
      </g>
      <path class="cls-2" d="M69,57.5c-6.32,0-11.5,5.18-11.5,11.5v28.75c0,6.32,5.18,11.5,11.5,11.5h28.75c6.32,0,11.5-5.18,11.5-11.5v-28.75c0-6.32-5.18-11.5-11.5-11.5h-28.75ZM69,63.25h28.75c3.23,0,5.75,2.52,5.75,5.75v28.75c0,3.23-2.52,5.75-5.75,5.75h-28.75c-3.23,0-5.75-2.52-5.75-5.75v-28.75c0-3.23,2.52-5.75,5.75-5.75Z"/>
    </g>
    <g>
      <path class="cls-3" d="M17.74,72.37c-.76,0-1.49.31-2.03.85-1.12,1.12-1.12,2.94,0,4.06l6.1,6.1-6.1,6.1c-1.12,1.13-1.12,2.94,0,4.06,1.12,1.13,2.94,1.13,4.06,0l6.1-6.1,6.1,6.1h0c1.12,1.13,2.94,1.13,4.06,0,1.12-1.12,1.12-2.94,0-4.06l-6.1-6.1,6.1-6.1c1.12-1.12,1.12-2.94,0-4.06-.54-.54-1.27-.84-2.03-.84s-1.49.3-2.03.84l-6.1,6.1-6.1-6.1h0c-.54-.54-1.27-.84-2.03-.84h0Z"/>
      <path class="cls-3" d="M11.5,57.5c-6.32,0-11.5,5.18-11.5,11.5v28.75c0,6.32,5.18,11.5,11.5,11.5h28.75c6.32,0,11.5-5.18,11.5-11.5v-28.75c0-6.32-5.18-11.5-11.5-11.5H11.5ZM11.5,63.25h28.75c3.23,0,5.75,2.52,5.75,5.75v28.75c0,3.23-2.52,5.75-5.75,5.75H11.5c-3.23,0-5.75-2.52-5.75-5.75v-28.75c0-3.23,2.52-5.75,5.75-5.75Z"/>
    </g>
    <g>
      <path class="cls-4" d="M71.87,23c-1.59,0-2.88,1.29-2.88,2.87,0,.77.31,1.49.85,2.03s1.27.85,2.03.85h23,0c.77,0,1.49-.31,2.03-.85s.85-1.27.85-2.03-.31-1.49-.85-2.03-1.27-.84-2.03-.84h-23Z"/>
      <path class="cls-4" d="M69,0C62.67,0,57.5,5.18,57.5,11.5v28.75c0,6.32,5.18,11.5,11.5,11.5h28.75c6.32,0,11.5-5.18,11.5-11.5V11.5c0-6.32-5.18-11.5-11.5-11.5h-28.75ZM69,5.75h28.75c3.23,0,5.75,2.52,5.75,5.75v28.75c0,3.23-2.52,5.75-5.75,5.75h-28.75c-3.23,0-5.75-2.52-5.75-5.75V11.5c0-3.23,2.52-5.75,5.75-5.75Z"/>
    </g>
    <g>
      <path class="cls-1" d="M25.87,11.5c-1.58,0-2.87,1.28-2.87,2.87v8.63h-8.63c-1.59,0-2.87,1.29-2.87,2.87,0,.77.3,1.49.84,2.03s1.27.85,2.03.85h8.63v8.63c0,.76.3,1.49.84,2.03s1.27.84,2.03.84,1.49-.3,2.03-.84.85-1.27.85-2.03v-8.63h8.63c.76,0,1.49-.31,2.03-.85s.84-1.27.84-2.03-.3-1.49-.84-2.03-1.27-.84-2.03-.84h-8.63v-8.63c0-.76-.31-1.49-.85-2.03s-1.27-.84-2.03-.84h0Z"/>
      <path class="cls-1" d="M11.5,0C5.18,0,0,5.18,0,11.5v28.75c0,6.32,5.18,11.5,11.5,11.5h28.75c6.32,0,11.5-5.18,11.5-11.5V11.5c0-6.32-5.18-11.5-11.5-11.5H11.5ZM11.5,5.75h28.75c3.23,0,5.75,2.52,5.75,5.75v28.75c0,3.23-2.52,5.75-5.75,5.75H11.5c-3.23,0-5.75-2.52-5.75-5.75V11.5c0-3.23,2.52-5.75,5.75-5.75Z"/>
    </g>
  </g>
  <text class="cls-5" transform="translate(131.59 68.43)"><tspan x="0" y="0">SiM</tspan></text>
</svg>