<svg width="561" height="113" viewBox="0 0 561 113" fill="none" xmlns="http://www.w3.org/2000/svg">
<g clip-path="url(#clip0_18_23)">
<path d="M9.45057 41.3686H0V0H9.51077L22.2721 17.4413L34.3411 0H43.265V41.3686H33.8144V15.0185L22.2871 31.1506H20.9327L9.46562 15.184V41.3686H9.45057Z" fill="white"/>
<path d="M54.6718 23.1145L52.4898 16.6737C55.334 14.9431 58.6146 14.0703 62.3617 14.0703C66.1088 14.0703 69.0283 15.0033 70.789 16.8543C72.5497 18.7053 73.4225 21.5495 73.4225 25.3718V41.3835H65.7326V38.9607C64.4384 40.8117 62.1059 41.7447 58.7651 41.7447C56.2369 41.7447 54.2204 40.9923 52.6704 39.5025C51.1354 38.0126 50.3679 35.951 50.3679 33.3626C50.3679 30.5636 51.2407 28.3966 53.0014 26.8616C54.7621 25.3267 57.0646 24.5592 59.9389 24.5592C62.1811 24.5592 63.9117 25.0558 65.1457 26.034C65.3414 22.9941 64.1224 21.4893 61.4738 21.4893C59.668 21.4893 57.3957 22.0461 54.6718 23.1446V23.1145ZM61.7598 34.3408C63.3399 34.3408 64.4535 33.8893 65.1307 32.9864V31.3311C64.303 30.7442 63.1744 30.4432 61.7598 30.4432C61.0073 30.4432 60.4054 30.6238 59.9238 30.9699C59.4573 31.3311 59.2165 31.8126 59.2165 32.4447C59.2165 33.0316 59.4573 33.4981 59.9238 33.8291C60.3903 34.1602 61.0073 34.3257 61.7598 34.3257V34.3408Z" fill="white"/>
<path d="M84.9347 23.6415H77.2449V14.7778H101.473V23.6415H93.7834V41.3687H84.9197V23.6415H84.9347Z" fill="white"/>
<path d="M126.063 32.8057L128.486 39.066C125.807 41.0825 122.361 42.0757 118.147 42.0757C113.934 42.0757 110.307 40.7966 107.628 38.2383C105.025 35.68 103.731 32.2941 103.731 28.0654C103.731 23.8368 105.055 20.7217 107.689 18.0732C110.367 15.3945 113.858 14.0552 118.147 14.0552C121.654 14.0552 124.694 15.244 127.252 17.6066C129.78 19.894 131.029 22.8887 131.029 26.5907C131.029 28.3664 130.848 29.8412 130.502 31.03H112.895C113.678 33.4679 115.755 34.6868 119.095 34.6868C121.699 34.6868 124.016 34.0548 126.063 32.7907V32.8057ZM117.846 21.4591C115.243 21.4591 113.497 22.678 112.579 25.1159H122.15C122.15 24.0926 121.759 23.2198 120.961 22.5125C120.179 21.8052 119.126 21.444 117.831 21.444L117.846 21.4591Z" fill="white"/>
<path d="M144.332 41.3687H135.468V14.7778H143.444L151.42 23.822L158.809 14.7778H166.559V41.3687H157.695V28.3065L151.254 35.6954H151.074L144.332 28.3065V41.3687Z" fill="white"/>
<path d="M175.889 23.1145L173.707 16.6737C176.551 14.9431 179.832 14.0703 183.579 14.0703C187.326 14.0703 190.246 15.0033 192.006 16.8543C193.767 18.7053 194.64 21.5495 194.64 25.3718V41.3835H186.95V38.9607C185.656 40.8117 183.323 41.7447 179.982 41.7447C177.454 41.7447 175.438 40.9923 173.888 39.5025C172.353 38.0126 171.585 35.951 171.585 33.3626C171.585 30.5636 172.458 28.3966 174.219 26.8616C175.979 25.3267 178.282 24.5592 181.156 24.5592C183.398 24.5592 185.129 25.0558 186.363 26.034C186.559 22.9941 185.34 21.4893 182.691 21.4893C180.885 21.4893 178.613 22.0461 175.889 23.1446V23.1145ZM182.977 34.3408C184.557 34.3408 185.671 33.8893 186.348 32.9864V31.3311C185.52 30.7442 184.392 30.4432 182.977 30.4432C182.225 30.4432 181.623 30.6238 181.141 30.9699C180.675 31.3311 180.434 31.8126 180.434 32.4447C180.434 33.0316 180.675 33.4981 181.141 33.8291C181.608 34.1602 182.225 34.3257 182.977 34.3257V34.3408Z" fill="white"/>
<path d="M206.152 23.6415H198.462V14.7778H222.691V23.6415H215.001V41.3687H206.137V23.6415H206.152Z" fill="white"/>
<path d="M245.459 27.4789L236.008 41.3687H227.145V14.7778H236.008V28.6677L245.459 14.7778H254.323V41.3687H245.459V27.4789Z" fill="white"/>
<path d="M275 14.7778H283.863V41.3687H275V33.3328C273.344 34.0852 271.373 34.4614 269.086 34.4614C265.7 34.4614 263.232 33.5735 261.667 31.7978C260.117 30.0221 259.334 27.3434 259.334 23.7619V14.7778H268.785V22.573C268.785 24.9808 269.733 26.1847 271.629 26.1847C273.119 26.1847 274.247 25.989 275 25.5978V14.7778Z" fill="white"/>
<path d="M311.237 32.8057L313.66 39.066C310.981 41.0825 307.535 42.0757 303.321 42.0757C299.108 42.0757 295.481 40.7966 292.802 38.2383C290.199 35.68 288.905 32.2941 288.905 28.0654C288.905 23.8368 290.229 20.7217 292.863 18.0732C295.541 15.3945 299.033 14.0552 303.321 14.0552C306.828 14.0552 309.868 15.244 312.426 17.6066C314.954 19.894 316.203 22.8887 316.203 26.5907C316.203 28.3664 316.023 29.8412 315.676 31.03H298.069C298.852 33.4679 300.929 34.6868 304.27 34.6868C306.873 34.6868 309.19 34.0548 311.237 32.7907V32.8057ZM303.02 21.4591C300.417 21.4591 298.671 22.678 297.753 25.1159H307.324C307.324 24.0926 306.933 23.2198 306.136 22.5125C305.353 21.8052 304.3 21.444 303.005 21.444L303.02 21.4591Z" fill="white"/>
<path d="M340.492 30.8494L344.63 37.3504C342.313 40.5106 338.686 42.0757 333.75 42.0757C329.341 42.0757 325.789 40.7966 323.11 38.2383C320.477 35.7101 319.153 32.3242 319.153 28.0654C319.153 24.0926 320.447 20.7819 323.05 18.1333C325.729 15.4096 329.115 14.0552 333.208 14.0552C338.054 14.0552 341.68 15.3193 344.088 17.8324L340.01 24.7999C338.355 23.1445 336.459 22.3169 334.337 22.3169C332.757 22.3169 331.417 22.8436 330.289 23.912C329.16 24.9805 328.603 26.3499 328.603 28.0504C328.603 29.7509 329.19 31.1203 330.379 32.1887C331.643 33.2572 332.997 33.7839 334.457 33.7839C336.624 33.7839 338.626 32.8057 340.492 30.8344V30.8494Z" fill="white"/>
<path d="M358.159 41.3687H349.295V14.7778H358.159V27.0725L365.367 14.7778H376.473L367.85 27.4337L377.782 41.3838H366.315L358.159 28.9687V41.3838V41.3687Z" fill="white"/>
<path d="M383.636 23.1145L381.454 16.6737C384.298 14.9431 387.579 14.0703 391.326 14.0703C395.073 14.0703 397.993 15.0033 399.753 16.8543C401.499 18.7053 402.387 21.5495 402.387 25.3718V41.3835H394.697V38.9607C393.403 40.8117 391.07 41.7447 387.729 41.7447C385.201 41.7447 383.185 40.9923 381.65 39.5025C380.115 38.0126 379.347 35.951 379.347 33.3626C379.347 30.5636 380.22 28.3966 381.981 26.8616C383.741 25.3267 386.044 24.5592 388.933 24.5592C391.175 24.5592 392.906 25.0558 394.14 26.034C394.336 22.9941 393.117 21.4893 390.468 21.4893C388.662 21.4893 386.39 22.0461 383.666 23.1446L383.636 23.1145ZM390.724 34.3408C392.304 34.3408 393.418 33.8893 394.095 32.9864V31.3311C393.267 30.7442 392.139 30.4432 390.724 30.4432C389.972 30.4432 389.37 30.6238 388.888 30.9699C388.422 31.3311 388.181 31.8126 388.181 32.4447C388.181 33.0316 388.422 33.4981 388.888 33.8291C389.355 34.1602 389.972 34.3257 390.724 34.3257V34.3408Z" fill="white"/>
<path d="M422.341 14.7778H431.506V41.3687H422.642V34.5668H420.521L416.322 41.3687H406.209L412.53 32.6255C409.58 31.0454 408.09 28.4269 408.09 24.7701C408.09 21.7002 409.294 19.2623 411.702 17.4715C414.11 15.6807 417.646 14.7778 422.341 14.7778ZM417.556 25.4774C417.556 26.1847 417.887 26.8017 418.564 27.3133C419.226 27.825 420.054 28.0808 421.047 28.0808H422.642V22.4677H420.927C419.979 22.4677 419.181 22.7686 418.534 23.3856C417.887 24.0026 417.556 24.6949 417.556 25.4774Z" fill="white"/>
<path d="M468.15 27.4789L458.699 41.3687H449.835V14.7778H458.699V28.6677L468.15 14.7778H477.013V41.3687H468.15V27.4789Z" fill="white"/>
<path d="M492.378 41.3687H483.514V14.7778H502.43V23.0546H492.378V41.3687Z" fill="white"/>
<path d="M515.132 53.1966H506.268V14.7775H515.132V16.779C516.938 14.9731 519.406 14.0552 522.521 14.0552C526.027 14.0552 528.886 15.3343 531.083 17.8926C533.295 20.4508 534.394 23.7013 534.394 27.6441C534.394 31.7824 533.07 35.2286 530.436 37.9825C527.758 40.7063 524.311 42.0606 520.098 42.0606C518.126 42.0606 516.471 41.7898 515.132 41.233V53.1665V53.1966ZM519.752 22.347C518.096 22.347 516.561 23.1295 515.147 24.7096V32.8057C516.29 33.4829 517.66 33.814 519.285 33.814C521.091 33.814 522.491 33.2722 523.484 32.1887C524.462 31.1052 524.959 29.6606 524.959 27.8397C524.959 26.1844 524.492 24.8601 523.574 23.8518C522.641 22.8436 521.377 22.347 519.767 22.347H519.752Z" fill="white"/>
<path d="M542.264 23.1145L540.082 16.6737C542.927 14.9431 546.207 14.0703 549.954 14.0703C553.701 14.0703 556.621 15.0033 558.382 16.8543C560.127 18.7053 561.015 21.5495 561.015 25.3718V41.3835H553.325V38.9607C552.031 40.8117 549.699 41.7447 546.358 41.7447C543.83 41.7447 541.813 40.9923 540.278 39.5025C538.743 38.0126 537.976 35.951 537.976 33.3626C537.976 30.5636 538.848 28.3966 540.609 26.8616C542.37 25.3267 544.672 24.5592 547.562 24.5592C549.804 24.5592 551.534 25.0558 552.768 26.034C552.964 22.9941 551.745 21.4893 549.097 21.4893C547.291 21.4893 545.018 22.0461 542.295 23.1446L542.264 23.1145ZM549.352 34.3408C550.933 34.3408 552.046 33.8893 552.723 32.9864V31.3311C551.896 30.7442 550.767 30.4432 549.352 30.4432C548.6 30.4432 547.998 30.6238 547.516 30.9699C547.05 31.3311 546.809 31.8126 546.809 32.4447C546.809 33.0316 547.05 33.4981 547.516 33.8291C547.983 34.1602 548.6 34.3257 549.352 34.3257V34.3408Z" fill="white"/>
<path d="M139.547 100.946C139.547 99.2154 137.515 97.3794 133.452 95.4532C132.263 94.9416 131.24 94.46 130.352 94.0086C129.464 93.5571 128.486 92.9251 127.402 92.1124C126.319 91.2998 125.431 90.4721 124.739 89.5993C124.046 88.7265 123.46 87.658 122.963 86.3488C122.466 85.0546 122.241 83.6551 122.286 82.1503C122.286 78.8396 123.505 76.0255 125.958 73.6929C128.395 71.3755 131.631 70.2017 135.649 70.2017C140.931 70.2017 144.994 71.7216 147.823 74.7463L142.737 81.8342C141.593 80.7658 140.6 80.0434 139.757 79.6522C138.915 79.2609 137.816 79.0653 136.477 79.0653C135.137 79.0653 134.159 79.3362 133.437 79.893C132.714 80.4498 132.338 81.1871 132.338 82.1352C132.338 83.2037 132.76 84.1367 133.602 84.9794C134.445 85.8071 135.514 86.4843 136.793 87.011C138.072 87.5377 139.456 88.1998 140.961 88.9974C142.451 89.7799 143.851 90.6226 145.13 91.5105C146.409 92.3984 147.477 93.6323 148.32 95.2275C149.163 96.8226 149.584 98.6887 149.584 100.811C149.584 104.362 148.23 107.266 145.506 109.554C142.872 111.841 139.501 112.985 135.393 112.985C132.398 112.985 129.554 112.368 126.876 111.149C124.152 109.93 122.331 108.275 121.383 106.183L126.755 99.7421C127.824 101.127 129.163 102.195 130.773 102.962C132.383 103.73 134.009 104.121 135.619 104.121C136.838 104.121 137.801 103.835 138.478 103.263C139.17 102.692 139.516 101.909 139.516 100.931L139.547 100.946Z" fill="white"/>
<path d="M157.74 109.042C155.062 106.364 153.722 103.008 153.722 98.9897C153.722 94.9718 155.062 91.6159 157.74 88.9373C160.419 86.3038 164.001 84.9795 168.5 84.9795C173 84.9795 176.551 86.3038 179.2 88.9373C181.924 91.5708 183.278 94.9266 183.278 98.9897C183.278 103.053 181.924 106.394 179.2 109.042C176.566 111.676 173 113 168.5 113C164.001 113 160.419 111.676 157.74 109.042ZM163.188 99.0048C163.188 100.66 163.685 102.03 164.693 103.113C165.701 104.197 166.965 104.738 168.5 104.738C170.035 104.738 171.359 104.212 172.338 103.173C173.316 102.135 173.812 100.735 173.812 99.0048C173.812 97.2742 173.316 95.98 172.308 94.8965C171.299 93.813 170.035 93.2713 168.5 93.2713C166.965 93.2713 165.686 93.798 164.693 94.8363C163.685 95.8747 163.188 97.2742 163.188 99.0048Z" fill="white"/>
<path d="M188.304 104.678V70.9243H197.168V101.307C197.168 103.595 197.664 104.739 198.643 104.739C199.199 104.739 199.967 104.423 200.945 103.79L202.721 110.532C200.704 112.188 198.116 113.015 194.926 113.015C190.516 113.015 188.304 110.231 188.304 104.678Z" fill="white"/>
<path d="M232.743 62.9033H262.825V68.366H239.816L221.441 112.293H214.76L202.706 85.702H213.225L216.656 94.0991C217.408 95.9952 217.995 98.0418 218.432 100.239C218.868 97.801 219.44 95.7243 220.147 94.0389L232.743 62.9033Z" fill="white"/>
<path d="M259.936 93.3014L264.752 98.9146C262.705 101.984 259.5 104.302 255.12 105.852C250.741 107.402 246.513 107.402 242.781 105.732C239.139 104.031 236.535 100.991 234.985 96.6121C233.435 92.233 233.646 88.5009 235.422 84.7839C237.213 81.0218 240.343 78.3431 244.812 76.763C248.454 75.4688 252.035 75.5892 255.572 77.0941C259.033 78.5387 261.441 81.1873 262.81 85.0397C263.457 86.8757 263.819 88.4859 263.894 89.8402L245.61 96.3262C247.325 98.5684 249.929 99.0801 253.405 97.8461C256.099 96.883 258.296 95.3781 259.951 93.3165L259.936 93.3014ZM247.235 84.5281C244.541 85.4912 243.157 87.4024 243.127 90.2616L253.074 86.7402C252.698 85.6718 251.975 84.9193 250.892 84.4679C249.808 84.0164 248.604 84.0315 247.25 84.513L247.235 84.5281Z" fill="white"/>
<path d="M276.595 112.293H267.144V70.9243H276.595V112.293Z" fill="white"/>
<path d="M285.173 102.195V78.313H294.036V85.7019H301.425V93.9786H294.036V101.789C294.036 103.76 294.608 104.738 295.752 104.738C297.016 104.738 298.325 104.227 299.71 103.203L302.373 110.005C300.086 112.007 297.106 113.015 293.449 113.015C290.575 113.015 288.468 112.112 287.159 110.321C285.835 108.531 285.173 105.822 285.173 102.195Z" fill="white"/>
<path d="M318.912 112.293H309.461V70.9243H318.972L331.733 88.3657L343.787 70.9243H352.711V112.293H343.261V85.9278L331.733 102.06H330.379L318.912 86.1084V112.293Z" fill="white"/>
<path d="M364.133 94.0388L361.951 87.598C364.795 85.8674 368.076 84.9946 371.823 84.9946C375.57 84.9946 378.49 85.9276 380.25 87.7786C381.996 89.6296 382.884 92.4738 382.884 96.2961V112.308H375.194V109.885C373.9 111.736 371.567 112.669 368.226 112.669C365.698 112.669 363.682 111.917 362.147 110.427C360.612 108.937 359.844 106.875 359.844 104.287C359.844 101.488 360.717 99.3209 362.478 97.786C364.238 96.251 366.541 95.4835 369.43 95.4835C371.673 95.4835 373.403 95.9801 374.637 96.9583C374.833 93.9185 373.614 92.4136 370.965 92.4136C369.159 92.4136 366.887 92.9704 364.163 94.0689L364.133 94.0388ZM371.221 105.265C372.801 105.265 373.915 104.814 374.592 103.911V102.255C373.764 101.668 372.636 101.368 371.221 101.368C370.469 101.368 369.867 101.548 369.385 101.894C368.919 102.255 368.678 102.737 368.678 103.369C368.678 103.956 368.919 104.422 369.385 104.753C369.852 105.085 370.469 105.25 371.221 105.25V105.265Z" fill="white"/>
<path d="M388.181 102.195V78.313H397.045V85.7019H404.433V93.9786H397.045V101.789C397.045 103.76 397.616 104.738 398.76 104.738C400.024 104.738 401.333 104.227 402.718 103.203L405.382 110.005C403.094 112.007 400.115 113.015 396.458 113.015C393.583 113.015 391.477 112.112 390.167 110.321C388.843 108.531 388.181 105.822 388.181 102.195Z" fill="white"/>
<path d="M419.271 112.293H410.408V70.9243H419.271V87.538C420.957 86.003 423.154 85.2355 425.833 85.2355C429.264 85.2355 431.912 86.1987 433.808 88.1098C435.705 90.021 436.638 92.8802 436.638 96.7026V112.308H427.774V97.8312C427.774 96.5371 427.383 95.4836 426.585 94.7011C425.787 93.9186 424.779 93.5123 423.515 93.5123C421.815 93.5123 420.4 94.0841 419.256 95.2278V112.308L419.271 112.293Z" fill="white"/>
<path d="M446.985 80.2544H437.945V77.8544C437.958 77.8411 438.285 77.5277 438.925 76.9144L440.025 75.8144C440.265 75.5477 440.585 75.2144 440.985 74.8144C441.438 74.3344 441.758 73.9544 441.945 73.6744L442.605 72.6544C443.071 71.9477 443.305 71.2211 443.305 70.4744C443.305 69.5544 442.878 69.0944 442.025 69.0944C441.638 69.0944 441.331 69.2211 441.105 69.4744C440.878 69.7144 440.671 70.0877 440.485 70.5944L437.985 69.4544C438.225 68.4011 438.718 67.5811 439.465 66.9944C440.225 66.3944 441.198 66.0944 442.385 66.0944C443.678 66.0944 444.685 66.4611 445.405 67.1944C446.138 67.9277 446.505 68.8211 446.505 69.8744C446.505 72.5277 444.945 75.0544 441.825 77.4544H446.985V80.2544Z" fill="white"/>
</g>
<defs>
<clipPath id="clip0_18_23">
<rect width="561" height="113" fill="white"/>
</clipPath>
</defs>
</svg>
