<?xml version="1.0" encoding="UTF-8"?>
<svg id="_Слой_1" data-name="Слой 1" xmlns="http://www.w3.org/2000/svg" viewBox="0 0 57.36 79.78">
  <defs>
    <style>
      .cls-1 {
        fill: #fff;
        stroke-width: 0px;
      }
    </style>
  </defs>
  <path class="cls-1" d="M52.25,28.27h-3.63v-7.14C48.62,9.48,39.76,0,28.86,0S9.1,9.48,9.1,21.13v7.14h-3.99c-2.82,0-5.11,2.29-5.11,5.11v41.29c0,2.82,2.29,5.11,5.11,5.11h47.14c2.82,0,5.11-2.29,5.11-5.11v-41.29c0-2.82-2.29-5.11-5.11-5.11h0ZM11.32,21.13c0-10.43,7.87-18.91,17.54-18.91s17.54,8.48,17.54,18.91v7.14h-2.03v-5.96c0-10.12-7.03-18.36-15.68-18.36s-15.68,8.23-15.68,18.36v5.96h-1.7v-7.14ZM15.24,28.27v-5.96c0-8.9,6.04-16.15,13.46-16.15s13.46,7.24,13.46,16.15v5.96H15.24ZM55.14,74.66c0,1.59-1.3,2.89-2.89,2.89H5.12c-1.59,0-2.89-1.29-2.89-2.89v-41.29c0-1.59,1.3-2.89,2.89-2.89h8.84c.06.01.12.04.18.04s.12-.03.18-.04h28.77c.06.01.12.04.18.04s.12-.03.18-.04h8.8c1.59,0,2.89,1.3,2.89,2.89v41.29h0ZM33.88,50.4c0-2.86-2.32-5.18-5.18-5.18s-5.18,2.32-5.18,5.18c0,1.56.69,3.01,1.87,3.98l-.49,7.43c-.02.3.09.61.3.83.21.22.5.35.81.35h5.47c.31,0,.6-.13.81-.36s.32-.53.29-.84l-.56-7.43c1.18-.98,1.87-2.42,1.87-3.98h0ZM27.19,60.78l.45-6.86c0-.05-.02-.1-.02-.15,0-.08,0-.15-.03-.23-.02-.07-.05-.13-.09-.19s-.06-.12-.11-.18c-.05-.06-.11-.11-.17-.16-.04-.03-.06-.07-.11-.1-.87-.55-1.39-1.48-1.39-2.51,0-1.63,1.33-2.96,2.96-2.96s2.96,1.33,2.96,2.96c0,1.03-.52,1.96-1.39,2.51-.05.03-.07.07-.11.11-.06.05-.12.1-.17.16-.04.06-.07.12-.11.18-.03.06-.07.12-.09.19-.02.07-.02.15-.03.23,0,.05-.02.1-.02.15l.52,6.85h-3.09,0Z"/>
</svg>