<?xml version="1.0" encoding="UTF-8"?>
<svg id="_Слой_1" data-name="Слой 1" xmlns="http://www.w3.org/2000/svg" viewBox="0 0 90 90">
  <defs>
    <style>
      .cls-1 {
        fill: #41415e;
        stroke-width: 0px;
      }
    </style>
  </defs>
  <path class="cls-1" d="M45,90c-13.8,0-26.1-6.2-34.4-16-.3-.3-.5-.5-.7-.8C3.7,65.5,0,55.7,0,45,0,20.2,20.2,0,45,0s45,20.2,45,45c0,10.7-3.7,20.5-10,28.2-.2.3-.4.6-.7.8-8.2,9.8-20.5,16-34.3,16h0ZM45,52.2c11.8,0,22.9,4.5,31.3,12.6,3.6-5.7,5.7-12.5,5.7-19.8,0-20.4-16.6-37-37-37S8,24.6,8,45c0,7.3,2.1,14.1,5.7,19.8,8.4-8.1,19.5-12.6,31.3-12.6h0ZM45,45c-8.3,0-15-6.7-15-15s6.7-15,15-15,15,6.7,15,15-6.7,15-15,15Z"/>
</svg>