<?xml version="1.0" encoding="UTF-8"?>
<svg id="_Слой_1" data-name=" Слой 1" xmlns="http://www.w3.org/2000/svg" viewBox="0 0 42.02 28.33">
  <defs>
    <style>
      .cls-1 {
        fill: #5b7ac9;
        stroke-width: 0px;
      }
    </style>
  </defs>
  <path class="cls-1" d="M41.3,6.04L21.3.04c-.19-.05-.39-.05-.58,0L.72,6.04c-.53.15-.83.71-.68,1.24.1.33.35.58.68.68l7.48,2.24v8.18c0,1.66,1.34,3,3,3h14.89c.55,0,1-.45,1-1s-.45-1-1-1h-14.89c-.55,0-1-.45-1-1v-7.58l10.52,3.16c.19.05.39.05.58,0l5.23-1.57c.53-.16.83-.72.67-1.25s-.72-.83-1.25-.67l-4.94,1.49L4.49,6.96,21.01,1.96l16.52,5-3.44,1c-.53.16-.83.72-.67,1.25.16.53.72.83,1.25.67l6.63-2c.53-.15.83-.71.68-1.24-.1-.33-.35-.58-.68-.68,0,0,0,.08,0,.08Z"/>
  <path class="cls-1" d="M32.27,19.19c1.7-.69,2.52-2.62,1.84-4.32-.37-.93-1.14-1.63-2.1-1.93v-2.94h0v-.21c-.02-.06-.04-.11-.06-.17-.03-.06-.06-.11-.1-.16-.03-.05-.07-.1-.12-.14l-.15-.1c-.06-.04-.12-.07-.18-.1h-.05l-10-3c-.53-.16-1.09.14-1.25.67s.14,1.09.67,1.25l9.24,2.7v2.2c-1.75.54-2.73,2.4-2.19,4.15.3.95,1,1.72,1.93,2.1l-2.3,7.86c-.09.3-.03.63.16.88s.49.4.8.4h5.2c.31,0,.61-.15.8-.4s.25-.58.16-.88c0,0-2.3-7.86-2.3-7.86ZM31.01,14.77c.74,0,1.34.59,1.35,1.33,0,.74-.59,1.34-1.33,1.35-.74,0-1.34-.59-1.35-1.33h0c0-.73.59-1.33,1.32-1.34h.01ZM29.75,26.33l1.26-4.33,1.26,4.33h-2.52Z"/>
</svg>